PathFileType	4	(X/Y/Z)	C:\InverseKin\data\OA1\Walking\OA1_80_1.trc
DataRate	CameraRate	NumFrames	NumMarkers	Units	OrigDataRate	OrigDataStartFrame	OrigNumFrames
100.00	100.00	       4	42	mm	100.00	73	       291
Frame#	Time	R.Shoulder			R.Clavicle			R.Bicep			R.Elbow			R.Forearm			R.Wrist			L.Shoulder			L.Clavicle			L.Scapula			L.Bicep			L.Elbow			L.Forearm			L.Wrist			R.ASIS			R.Iliac			R.PSIS			S2			L.PSIS			L.Iliac			L.ASIS			R.TH1			R.TH2			R.TH3			R.Knee			R.SH1			R.SH2			R.SH3			R.SH4			R.Ankle			R.Heel			R.MT5			L.TH1			L.TH2			L.TH3			L.TH4			L.Knee			L.SH1			L.SH2			L.SH3			L.Ankle			L.Heel			L.MT5			
		X1	Y1	Z1	X2	Y2	Z2	X3	Y3	Z3	X4	Y4	Z4	X5	Y5	Z5	X6	Y6	Z6	X7	Y7	Z7	X8	Y8	Z8	X9	Y9	Z9	X10	Y10	Z10	X11	Y11	Z11	X12	Y12	Z12	X13	Y13	Z13	X14	Y14	Z14	X15	Y15	Z15	X16	Y16	Z16	X17	Y17	Z17	X18	Y18	Z18	X19	Y19	Z19	X20	Y20	Z20	X21	Y21	Z21	X22	Y22	Z22	X23	Y23	Z23	X24	Y24	Z24	X25	Y25	Z25	X26	Y26	Z26	X27	Y27	Z27	X28	Y28	Z28	X29	Y29	Z29	X30	Y30	Z30	X31	Y31	Z31	X32	Y32	Z32	X33	Y33	Z33	X34	Y34	Z34	X35	Y35	Z35	X36	Y36	Z36	X37	Y37	Z37	X38	Y38	Z38	X39	Y39	Z39	X40	Y40	Z40	X41	Y41	Z41	X42	Y42	Z42	

73	0.720	-821.26245	64.06522	1367.93787	-775.06470	232.01840	1320.76013	-836.10645	33.35518	1233.01404	-963.90961	-42.11621	1101.93750	-930.60614	-24.54494	980.76288	-967.46600	-61.47769	858.54321	-831.95447	451.66461	1363.58496	-771.94617	287.50687	1326.38794	-979.53107	355.88400	1292.37903	-752.61230	461.17371	1137.91992	-794.50793	530.04651	1057.42261	-659.25720	478.36353	974.00635	-608.00336	513.49609	903.43848	-738.98932	140.58064	968.99243	-864.61383	81.43037	1046.60510	-984.26483	165.37793	998.18347	-999.28168	218.34305	984.70166	-994.51434	279.18820	1010.99689	-897.75299	413.30078	1035.77478	-778.77582	386.66782	959.33032	-682.10089	148.47691	741.26086	-658.35498	156.10133	666.96869	-770.95630	73.08592	622.85834	-701.74493	102.39786	488.43634	-589.91156	175.85568	365.45694	-570.86084	178.95039	295.04959	-664.25244	92.99633	342.95865	-651.92261	100.10268	270.60757	-572.77539	138.54648	102.18831	-632.83044	196.64526	40.34719	-452.42731	109.95236	58.13852	-834.80280	399.86838	736.26355	-849.72302	380.84769	657.75616	-979.54059	419.13138	759.91571	-997.30908	396.36102	680.55688	-1001.70087	380.04361	496.99536	-1011.26276	354.25357	336.97391	-1042.63660	340.57898	269.27063	-1145.81128	364.45044	309.80399	-1184.01001	340.92728	125.33076	-1268.65088	288.59698	80.27356	-1095.87805	365.88852	43.00446	
74	0.730	-810.53088	62.40983	1366.85327	-763.41003	230.33875	1320.57385	-824.73322	32.63576	1231.53674	-951.76221	-43.11652	1100.32300	-919.45361	-25.68045	978.90106	-955.81396	-63.29370	856.87677	-819.27753	450.57291	1363.49561	-759.61499	286.35443	1325.79150	-967.44855	355.27301	1292.19824	-740.92004	460.03479	1137.58093	-783.30713	528.71332	1056.88599	-648.57709	476.10919	973.35168	-597.20758	510.67505	902.19427	-726.81293	138.84642	969.79144	-852.06299	79.51093	1047.63232	-972.04633	164.55975	997.92590	-986.55548	217.96687	984.45581	-981.21832	278.37729	1009.99963	-884.00812	412.40936	1033.87610	-765.02600	385.48233	957.68933	-669.33069	147.13333	742.29407	-646.04175	155.06441	667.88049	-759.68970	70.58969	624.59991	-691.08014	101.24159	488.64346	-579.83087	175.36928	364.30295	-562.35486	178.99716	293.82568	-653.99030	92.06846	343.01553	-642.66736	99.79434	270.57364	-568.14197	138.46260	102.17147	-630.79242	196.89418	42.00324	-449.28064	110.09904	53.48582	-822.11725	398.13599	734.49731	-837.49261	380.41888	656.13275	-967.13812	418.15250	760.05170	-984.79193	395.33771	680.56329	-990.59650	379.24637	496.73764	-1003.25568	354.30292	336.97781	-1036.12976	340.99234	270.32260	-1138.22693	364.62073	312.67517	-1180.78320	341.45709	128.65123	-1266.67224	289.44440	87.10403	-1095.26904	366.31552	42.94732	
75	0.740	-799.50989	60.96984	1365.83777	-751.63495	228.58762	1321.04504	-813.10663	32.12458	1230.66577	-940.51428	-44.39632	1099.47632	-907.36230	-27.02110	977.72168	-943.63086	-64.71907	856.31659	-807.04822	449.01300	1363.39429	-748.05719	284.24341	1325.85144	-954.90509	354.94492	1291.89758	-729.67236	458.33203	1136.79272	-772.10858	526.72894	1056.52808	-638.29993	473.63687	972.05054	-587.45313	508.44907	900.91608	-715.48340	136.95187	971.33807	-839.95520	78.81738	1049.78699	-959.78992	163.78700	998.89612	-974.05121	217.02899	984.60376	-968.32458	278.06128	1009.63190	-870.41962	411.93729	1033.19812	-750.01068	383.40189	957.82800	-657.27478	146.17342	743.75500	-633.76550	153.56247	669.41992	-747.04456	69.31811	626.66589	-679.49103	100.14698	490.90616	-569.34229	175.78909	363.97458	-553.85883	179.40749	292.80634	-643.48260	91.61291	343.97754	-634.39801	99.19099	271.67786	-564.92206	138.70407	101.08459	-629.25708	197.65723	42.92669	-446.94849	110.94707	48.99755	-809.29132	398.28317	734.77325	-824.08649	379.54279	655.57202	-953.62982	416.42783	759.87952	-971.91595	393.96530	680.21405	-978.30841	378.98026	496.25641	-994.24432	354.84915	336.82547	-1028.98010	342.14258	271.17816	-1129.69385	365.13858	315.96017	-1176.71265	342.58267	132.61694	-1263.55493	290.62839	94.06043	-1094.26819	366.80127	43.19979	
76	0.750	-787.74146	59.23186	1365.24402	-738.98401	227.68753	1321.26392	-801.59381	31.01947	1229.52563	-927.47693	-44.63913	1097.98132	-894.06879	-27.68977	976.80450	-931.47473	-66.39993	855.13672	-793.90454	447.90146	1363.45740	-735.98981	282.52557	1326.62061	-942.73694	353.96237	1291.95520	-719.11676	456.68762	1136.08118	-761.06152	525.61914	1056.45532	-627.92346	470.69553	970.79303	-577.36713	506.13153	899.91193	-703.34125	135.36948	972.41034	-828.67633	78.45397	1052.05164	-947.51105	163.07474	1000.17554	-961.47998	217.20769	985.34601	-955.37421	278.04514	1009.68793	-856.81110	411.63776	1032.76563	-738.35986	381.30002	957.17474	-644.44116	143.93469	746.40002	-621.70642	151.59904	672.54327	-734.23810	67.93153	629.77820	-667.33600	98.76559	494.19461	-559.75165	175.88161	363.24185	-546.19043	179.82489	292.08688	-632.62085	90.37967	346.08417	-625.47839	97.63947	273.11682	-561.80060	138.69257	100.56654	-627.66003	199.31752	45.76322	-446.56711	110.71759	45.77212	-795.02844	395.67587	733.73615	-811.27661	378.17371	654.73096	-939.52704	415.33688	759.13513	-959.35681	393.40375	680.45380	-965.34619	378.42111	496.77002	-984.21515	354.48016	337.39297	-1020.66339	342.53845	272.30298	-1120.48560	365.75113	319.66147	-1171.79761	343.27887	137.19106	-1259.49438	291.60782	102.25153	-1093.14270	366.80334	43.22472	
